<svg xmlns="http://www.w3.org/2000/svg" width="65.66" height="65.63" viewBox="0 0 65.66 65.63"><g id="Capa_2" data-name="Capa 2"><g id="Capa_1-2" data-name="Capa 1"><path d="M65.32,30a7.06,7.06,0,0,0-8.73-3.9,7.15,7.15,0,0,0-4.9,6.94,6.25,6.25,0,0,1-2,4.55,6.52,6.52,0,0,1-9.75-.88A5.2,5.2,0,0,1,38.84,32a18,18,0,0,1,2.34-5,50.38,50.38,0,0,0,4.18-7.4,13.54,13.54,0,0,0,1.22-8.33,13.72,13.72,0,0,0-6.31-9.37,11.3,11.3,0,0,0-6-1.89,43.42,43.42,0,0,0-6.94.24,30.79,30.79,0,0,0-10.24,3.5,33.25,33.25,0,0,0-9.19,7.36,32,32,0,0,0-5.33,8.38A28.49,28.49,0,0,0,.21,28,50.69,50.69,0,0,0,0,34.68a26.39,26.39,0,0,0,.23,3.56,32.85,32.85,0,0,0,10.87,19.5,32.12,32.12,0,0,0,10.4,6.16,25.22,25.22,0,0,0,5.93,1.52c.94.1,1.9.08,2.85.21h5c.2-.13.42,0,.62-.06a31.92,31.92,0,0,0,3.24-.27,32.8,32.8,0,0,0,9.59-3.46,33.45,33.45,0,0,0,8.89-7.11,32.4,32.4,0,0,0,5.82-9.35,26.71,26.71,0,0,0,2-7.13c.12-1,.09-2,.22-3V32A12.37,12.37,0,0,0,65.32,30ZM19.26,13.74a5.45,5.45,0,1,1-5.5,5.38A5.44,5.44,0,0,1,19.26,13.74Zm-11,19.14a5.46,5.46,0,1,1,5.48,5.43A5.47,5.47,0,0,1,8.28,32.88ZM19.2,52a5.46,5.46,0,0,1,0-10.91A5.46,5.46,0,1,1,19.2,52Zm13.71,5.48A5.46,5.46,0,1,1,38.34,52,5.49,5.49,0,0,1,32.91,57.43Zm-.08-38.26a5.46,5.46,0,1,1,5.51-5.4A5.47,5.47,0,0,1,32.83,19.17Z" style="fill:#ffbc00"/></g></g></svg>