<svg xmlns="http://www.w3.org/2000/svg" width="52.93" height="66.67" viewBox="0 0 52.93 66.67"><g id="Capa_2" data-name="Capa 2"><g id="Capa_1-2" data-name="Capa 1"><path d="M0,50.38c.3-1.11,1.23-1.65,2.07-2.26,2.42-1.75,4.86-3.45,7.2-5.32a27.74,27.74,0,0,0,7.87-10,15.41,15.41,0,0,1,2.16-3.65,8.91,8.91,0,0,1,7-3.36,8.12,8.12,0,0,1,7.29,4.47,10.11,10.11,0,0,1,1.33,5.67,12.9,12.9,0,0,1-1.36,4.85,31.68,31.68,0,0,1-4.29,6.48A84.57,84.57,0,0,1,19,57.43Q15.56,60.34,11.92,63a2.46,2.46,0,0,1-2.11.54,1.81,1.81,0,0,1-.77-3,17.21,17.21,0,0,1,2.13-1.67A105.47,105.47,0,0,0,24.27,47.2a36.67,36.67,0,0,0,5.18-6.78A10.86,10.86,0,0,0,31,36.37a6.28,6.28,0,0,0-1.75-5.54,4.57,4.57,0,0,0-6.17,0,7,7,0,0,0-1.91,2.48,43.93,43.93,0,0,1-3.6,6.33,31.42,31.42,0,0,1-6.06,6.29c-2.64,2.12-5.41,4.06-8.18,6a2.39,2.39,0,0,1-1.77.5A1.73,1.73,0,0,1,.15,51.23c0-.12,0-.28-.15-.36Z" style="fill:#ffb703"/><path d="M0,42.05a3.46,3.46,0,0,1,1.61-1.86,36.27,36.27,0,0,0,6.45-5.34,16.08,16.08,0,0,0,3-4.43,21.42,21.42,0,0,1,4.61-6.72,15,15,0,0,1,8.23-4.29,14.39,14.39,0,0,1,11.28,2.86,14,14,0,0,1,5.1,7,15.41,15.41,0,0,1,.58,5.28,55.25,55.25,0,0,1-1.17,7.56,16.35,16.35,0,0,0-.43,5c.34,2.7,1,5.33,3,7.37a7.75,7.75,0,0,0,2.66,1.66,7,7,0,0,1,1,.5A1.83,1.83,0,0,1,44.52,60a10.72,10.72,0,0,1-5.7-3.57,15.41,15.41,0,0,1-3.07-6.87,17.7,17.7,0,0,1-.21-5.85c.19-1.7.57-3.39.91-5.07A21.3,21.3,0,0,0,37,32.26a9,9,0,0,0-2.21-5.15,11.45,11.45,0,0,0-6.29-3.84,10.22,10.22,0,0,0-7.19,1,14.76,14.76,0,0,0-5.87,6c-.73,1.25-1.23,2.62-2,3.86a24.37,24.37,0,0,1-4.74,5.44,43.51,43.51,0,0,1-5.15,3.93,3.19,3.19,0,0,1-1.5.64A1.81,1.81,0,0,1,.13,42.86c0-.08,0-.2-.13-.23Z" style="fill:#ffb703"/><path d="M27,0a2.44,2.44,0,0,0,1.1.14A35,35,0,0,1,40.14,3a33,33,0,0,1,6.74,4.09,2.42,2.42,0,0,1,1.17,1.93,1.8,1.8,0,0,1-2.45,1.68,7,7,0,0,1-1.72-1.11,28.06,28.06,0,0,0-10.83-5,31.21,31.21,0,0,0-3.72-.56c-1.09-.09-2.18-.22-3.27-.23a36.55,36.55,0,0,0-3.92.32,25.11,25.11,0,0,0-8.71,2.62A22.77,22.77,0,0,0,6.78,11.9a2.59,2.59,0,0,1-1.47.91,1.83,1.83,0,0,1-2-1.48,2.64,2.64,0,0,1,.88-2.2,26.31,26.31,0,0,1,8.66-6.25,29.48,29.48,0,0,1,8-2.36A31,31,0,0,1,24.86.1c.12,0,.28.07.36-.1Z" style="fill:#ffb703"/><path d="M26.66,16.65A16.34,16.34,0,0,0,14,22a39.05,39.05,0,0,0-4.3,6,20.54,20.54,0,0,1-6.16,6.46A2.6,2.6,0,0,1,1.41,35a1.69,1.69,0,0,1-1.3-1.47,1.83,1.83,0,0,1,.74-1.77c.44-.36.93-.66,1.39-1a18.22,18.22,0,0,0,4.58-5.27,35.4,35.4,0,0,1,4.7-6.37,19.9,19.9,0,0,1,9.93-5.75A21.64,21.64,0,0,1,28,12.92,20.48,20.48,0,0,1,38.59,16.6,21.14,21.14,0,0,1,46.76,28a12.53,12.53,0,0,1,.42,4.72c-.18,2-.44,3.91-.76,5.85-.28,1.74-.55,3.48-.72,5.23a7.48,7.48,0,0,0,1.37,4.91,15.32,15.32,0,0,0,2,2.42,12.38,12.38,0,0,1,.92,1,1.83,1.83,0,0,1,0,2.46,1.85,1.85,0,0,1-2.53.22,10.46,10.46,0,0,1-1.64-1.55A15.38,15.38,0,0,1,42.49,48a11.09,11.09,0,0,1-.56-5c.18-1.72.46-3.42.73-5.12.24-1.54.39-3.09.62-4.63.52-3.54-.72-6.55-2.69-9.35a16.43,16.43,0,0,0-10.14-6.81A15.44,15.44,0,0,0,26.66,16.65Z" style="fill:#ffb703"/><path d="M48.9,22.12A2.37,2.37,0,0,1,46.76,21a29.65,29.65,0,0,0-8.47-7.5,23.07,23.07,0,0,0-8.45-3,24.06,24.06,0,0,0-6.51-.06A21.14,21.14,0,0,0,12,15a29.76,29.76,0,0,0-4.29,4.54c-1.2,1.52-2.27,3.14-3.35,4.76a2,2,0,0,1-2.21,1,1.86,1.86,0,0,1-1.11-2.65,18.21,18.21,0,0,1,1.79-2.88,44.93,44.93,0,0,1,5-6.09A24.36,24.36,0,0,1,20.75,7a30,30,0,0,1,7.45-.46A27.6,27.6,0,0,1,44,12.82,30.28,30.28,0,0,1,50,19a1.94,1.94,0,0,1,.17,2.36A1.69,1.69,0,0,1,48.9,22.12Z" style="fill:#ffb703"/><path d="M3.26,57.08c0-.54.48-1.08,1.09-1.52,2.11-1.53,4.18-3.1,6.18-4.78a70.16,70.16,0,0,0,8.66-8.49,37.39,37.39,0,0,0,5.24-7.82,2,2,0,0,1,1.92-1.28A1.84,1.84,0,0,1,28,35.68a14.83,14.83,0,0,1-1.83,3.59,54.89,54.89,0,0,1-8.37,10.12,92.82,92.82,0,0,1-11,9.14,2.46,2.46,0,0,1-2.05.6A1.85,1.85,0,0,1,3.26,57.08Z" style="fill:#ffb703"/><path d="M52.92,35.79a31.69,31.69,0,0,1-.18,4.58,38.94,38.94,0,0,1-1.06,6.07A1.87,1.87,0,1,1,48,45.75c.16-1,.38-2,.55-3s.28-2,.4-2.92a35.89,35.89,0,0,0,.17-4.4,23.82,23.82,0,0,0-1.36-8.11,2.48,2.48,0,0,1-.16-1.52,1.77,1.77,0,0,1,1.5-1.34,1.87,1.87,0,0,1,1.94,1,11.86,11.86,0,0,1,1.13,3.22A27,27,0,0,1,52.92,35.79Z" style="fill:#ffb703"/><path d="M30.85,64.66a1.82,1.82,0,0,1-1.47,2,1.88,1.88,0,0,1-2-1A17.3,17.3,0,0,1,26.7,64a5.28,5.28,0,0,0-1.5-2.22,2,2,0,0,0-2.4-.21,12.76,12.76,0,0,0-3.16,2.6,5.74,5.74,0,0,1-1.06,1A1.78,1.78,0,0,1,16.42,65a1.82,1.82,0,0,1-.54-2.11,2.69,2.69,0,0,1,.45-.77,15.54,15.54,0,0,1,5-4.16,5.76,5.76,0,0,1,6.71,1.17,10.84,10.84,0,0,1,2.74,5A2,2,0,0,1,30.85,64.66Z" style="fill:#ffb703"/><path d="M29,53.15A11.06,11.06,0,0,1,30,49a2.25,2.25,0,0,1,1.8-1.51,1.87,1.87,0,0,1,1.92,2.37A21.7,21.7,0,0,0,33,52.24,6.68,6.68,0,0,0,33.5,56a11.44,11.44,0,0,0,3,4c.46.41.94.8,1.39,1.23a1.84,1.84,0,0,1-2,3A7.87,7.87,0,0,1,34,62.76a15.36,15.36,0,0,1-4-5.34A12.44,12.44,0,0,1,29,53.15Z" style="fill:#ffb703"/></g></g></svg>