<svg xmlns="http://www.w3.org/2000/svg" width="62.75" height="74.99" viewBox="0 0 62.75 74.99"><g id="Capa_2" data-name="Capa 2"><g id="Capa_1-2" data-name="Capa 1"><path d="M0,30.89a2,2,0,0,1,2.21-1.34c1.83.05,3.67,0,5.51,0a1.68,1.68,0,0,1,1.65,1,1.7,1.7,0,0,1-.26,1.83A1.65,1.65,0,0,1,7.8,33H1.71A1.83,1.83,0,0,1,0,31.72Z" style="fill:#ffbc00"/><path d="M31.63,0A1.93,1.93,0,0,1,33,2.1C32.94,4,33,5.83,33,7.7a1.73,1.73,0,1,1-3.45,0c0-2,0-4,0-5.93A1.78,1.78,0,0,1,30.89,0Z" style="fill:#ffbc00"/><path d="M58,33H55A1.74,1.74,0,1,1,55,29.57q3,0,6.06,0A1.74,1.74,0,1,1,61,33Z" style="fill:#ffbc00"/><path d="M52.34,8.62a1.63,1.63,0,0,1,1.59,1.05,1.64,1.64,0,0,1-.36,1.88c-1.43,1.45-2.87,2.88-4.31,4.31a1.73,1.73,0,0,1-2.43-2.45c1.42-1.44,2.85-2.86,4.28-4.29A1.58,1.58,0,0,1,52.34,8.62Z" style="fill:#ffbc00"/><path d="M14.09,16.53a1.67,1.67,0,0,1-1.2-.49c-1.43-1.43-2.86-2.85-4.28-4.29A1.74,1.74,0,0,1,11,9.27q2.18,2.14,4.31,4.32a1.73,1.73,0,0,1-1.26,2.94Z" style="fill:#ffbc00"/><path d="M15.85,47.77a1.71,1.71,0,0,1-.51,1.15L11,53.23a1.71,1.71,0,0,1-2.37,0,1.75,1.75,0,0,1-.21-2.33,2.62,2.62,0,0,1,.22-.25c1.37-1.38,2.75-2.77,4.14-4.14a1.74,1.74,0,0,1,3,1.23Z" style="fill:#ffbc00"/><path d="M46.32,47.87a1.65,1.65,0,0,1,1-1.57,1.61,1.61,0,0,1,1.88.3c1.48,1.45,2.93,2.91,4.38,4.38a1.73,1.73,0,0,1-2.26,2.59,2.92,2.92,0,0,1-.38-.32l-4-4A1.83,1.83,0,0,1,46.32,47.87Z" style="fill:#ffbc00"/><path d="M45,18.19a18.18,18.18,0,0,0-16.52-5.45A18.69,18.69,0,0,0,12.81,29.19,18.33,18.33,0,0,0,17,43.32,32.4,32.4,0,0,1,20.86,49a20.63,20.63,0,0,1,2.57,9.58c0,.31,0,.53-.4.57a1.15,1.15,0,0,0-.6.34A1.74,1.74,0,0,0,22,61.39a1.72,1.72,0,0,0,1.67,1.14H39.47A1.74,1.74,0,0,0,41.33,61a1.71,1.71,0,0,0-1.48-1.88c-.21,0-.26-.1-.27-.3a17.1,17.1,0,0,1,.31-3.43,26.07,26.07,0,0,1,5.78-11.63A18.81,18.81,0,0,0,50.24,33,18.17,18.17,0,0,0,45,18.19Zm-15.89.75a11.9,11.9,0,0,0-5.24,2.33,13.33,13.33,0,0,0-4.17,5.87,1.73,1.73,0,0,1-3.39-.53,1.68,1.68,0,0,1,.17-.79,15.89,15.89,0,0,1,9.89-9.76,13.35,13.35,0,0,1,2-.51,1.72,1.72,0,0,1,2,1.41A1.68,1.68,0,0,1,29.09,18.94Z" style="fill:#ffbc00"/><path d="M39.26,67.1H23.41a1.72,1.72,0,0,0-1.78,1.73,1.74,1.74,0,0,0,1.74,1.74q.66,0,1.32,0c.25,0,.34,0,.28.31a1.64,1.64,0,0,0,.85,1.89.4.4,0,0,1,.24.45A1.68,1.68,0,0,0,27.82,75h6.8a1.68,1.68,0,0,0,1.82-1.75c0-.18.05-.26.23-.32a1.68,1.68,0,0,0,1.23-2.08c-.06-.28,0-.27.23-.27.37,0,.74,0,1.12,0a1.74,1.74,0,1,0,0-3.47Z" style="fill:#ffbc00"/><path d="M39.46,63.16H23.56a1.85,1.85,0,0,0-.77.14,1.75,1.75,0,0,0-1,1.91,1.7,1.7,0,0,0,1.71,1.4H39.44a1.73,1.73,0,1,0,0-3.45Z" style="fill:#ffbc00"/></g></g></svg>