<svg xmlns="http://www.w3.org/2000/svg" width="68.71" height="68.71" viewBox="0 0 68.71 68.71"><g id="Capa_2" data-name="Capa 2"><g id="Capa_1-2" data-name="Capa 1"><path d="M34.36,0A34.36,34.36,0,1,0,68.71,34.36,34.44,34.44,0,0,0,34.36,0Zm4,52.12c-1.05.26-1.3.66-1.23,1.63s0,2.08,0,3.11a.87.87,0,0,1-1,1h-3a.92.92,0,0,1-1.05-1.06c0-1.21,0-2.42,0-3.63,0-.55-.1-.77-.71-.88a16.44,16.44,0,0,1-8-3.91c-1.1-1-1.13-1.19-.27-2.34.67-.9,1.33-1.8,2-2.7.55-.71.88-.74,1.56-.15A12.86,12.86,0,0,0,34,46.55a6.4,6.4,0,0,0,3.59-.71,3.74,3.74,0,0,0,2.21-3.44,3.67,3.67,0,0,0-2-3.21,37.09,37.09,0,0,0-5.15-2.4,31.53,31.53,0,0,1-5-2.46c-3.18-2.07-4.92-4.91-4.61-8.76.33-4.05,2.72-6.65,6.27-8.31a12.09,12.09,0,0,1,2.21-.7.61.61,0,0,0,.55-.71c0-1.26,0-2.53,0-3.8,0-1,.23-1.19,1.16-1.2H36c.93,0,1.14.24,1.15,1.19,0,.61,0,1.21,0,1.82h0c0,.77-.27,1.72.08,2.28s1.41.37,2.14.58a14.72,14.72,0,0,1,5.34,2.73c.86.72.91.92.39,1.88s-1.08,2-1.63,3-.89,1-1.75.38a11.52,11.52,0,0,0-6.11-2.58A6.5,6.5,0,0,0,31,23.34a3.39,3.39,0,0,0-.26,5.38,13.11,13.11,0,0,0,4.19,2.34,60.85,60.85,0,0,1,6.3,2.78C44,35.45,46,37.66,46.27,41.06A10.32,10.32,0,0,1,38.34,52.12Z" style="fill:#ffb703"/></g></g></svg>