<svg xmlns="http://www.w3.org/2000/svg" width="79.33" height="47.08" viewBox="0 0 79.33 47.08"><g id="Capa_2" data-name="Capa 2"><g id="Capa_1-2" data-name="Capa 1"><path d="M55.06,47.08l-5.33-2.79c-3.1-1.62-6.21-3.23-9.3-4.88a1.35,1.35,0,0,0-1.46,0c-4.5,2.38-9,4.73-13.53,7.09a2.16,2.16,0,0,1-1.06.4c.3-1.73.58-3.43.87-5.13.64-3.69,1.27-7.37,1.94-11a1.29,1.29,0,0,0-.43-1.31c-3.69-3.55-7.36-7.13-11-10.7-.23-.22-.48-.42-.91-.81,1.3-.2,2.35-.38,3.4-.53,4.34-.64,8.68-1.28,13-1.89a1.36,1.36,0,0,0,1.17-.87Q35.82,7.69,39.25.78c.13-.26.27-.51.42-.78.34.21.4.55.53.82C42.47,5.38,44.74,10,47,14.52a1.58,1.58,0,0,0,1.37,1c5.1.71,10.19,1.47,15.29,2.22.25,0,.53,0,.73.24-.1.33-.39.5-.62.72-3.67,3.57-7.34,7.15-11,10.7a1.38,1.38,0,0,0-.46,1.38c.9,5.05,1.77,10.1,2.64,15.14C55,46.25,55,46.56,55.06,47.08Z" style="fill:#ffb703"/><path d="M68.91,37.52l-1.29-7.65c-.21-1.27-.4-2.56-.66-3.83a1.2,1.2,0,0,1,.39-1.24c2.54-2.45,5.06-4.93,7.58-7.41.19-.19.59-.35.46-.66s-.52-.19-.8-.23c-3.5-.51-7-1-10.49-1.5a1.14,1.14,0,0,1-1-.74C61.58,11.12,60,8,58.47,4.84c-.14-.28-.29-.56-.51-1L56.79,6.17C55.9,8,55,9.74,54.13,11.55c-.25.53-.55.46-.88.19s-1.11-.15-.69-1c1.75-3.5,3.47-7,5.21-10.53A1,1,0,0,1,58,0c.31.19.37.52.5.8,1.93,3.91,3.86,7.81,5.77,11.73a1.32,1.32,0,0,0,1.16.87c4.63.64,9.26,1.33,14,2a1.74,1.74,0,0,1-.62.77Q74,20.8,69.26,25.37a1.34,1.34,0,0,0-.43,1.39Q70,33.28,71.1,39.81c0,.23.06.46.09.69-.29.16-.47-.06-.65-.15-3.68-1.92-7.35-3.88-11.05-5.74-.87-.44-.48-.82-.27-1.36s.59-.52,1.07-.26c2.54,1.36,5.1,2.7,7.65,4Z" style="fill:#ffb703"/><path d="M8.21,40.6,9,35.8c.52-3,1-6,1.58-9a1.34,1.34,0,0,0-.44-1.39C7,22.35,3.91,19.3.77,16.27A7.3,7.3,0,0,0,0,15.7l.13-.25c2-.29,3.92-.59,5.89-.87,2.71-.4,5.42-.8,8.13-1.16a1.22,1.22,0,0,0,1-.79C17.11,8.69,19.05,4.76,21,.82l.4-.77c.34,0,.35.31.45.5,1.66,3.35,3.28,6.72,5,10,.44.87-.22.88-.63,1.17s-.73.08-1-.38C24.15,9.16,23,7,21.93,4.74c-.13-.26-.18-.57-.54-.75L21,4.85C19.42,8,17.87,11.07,16.35,14.2a1.29,1.29,0,0,1-1.11.82c-3.5.47-7,1-10.49,1.49-.25,0-.61,0-.71.23s.24.42.41.59c2.5,2.46,5,4.93,7.52,7.35a1.49,1.49,0,0,1,.48,1.55c-.62,3.47-1.19,7-1.78,10.45,0,.22-.06.45-.09.69.41.05.65-.2.93-.34,2.6-1.37,5.21-2.74,7.8-4.13.45-.24.73-.21.84.29s.9.82,0,1.28q-5.81,3-11.59,6.05A1.63,1.63,0,0,1,8.21,40.6Z" style="fill:#ffb703"/></g></g></svg>