<svg xmlns="http://www.w3.org/2000/svg" width="73.58" height="73.48" viewBox="0 0 73.58 73.48"><g id="Capa_2" data-name="Capa 2"><g id="Capa_1-2" data-name="Capa 1"><path d="M73.57,31.48c0-.61-.17-.84-.76-1-2.1-.46-4.18-1-6.28-1.45A1.3,1.3,0,0,1,65.41,28a22.55,22.55,0,0,0-2.3-5.51,1.07,1.07,0,0,1,.1-1.31c1.15-1.78,2.25-3.58,3.37-5.37.14-.23.27-.45.4-.65s-.26-.48-.44-.66C64,12,61.47,9.52,59,7c-.43-.43-.71-.34-1.14-.06-1.84,1.18-3.71,2.31-5.55,3.5a1.08,1.08,0,0,1-1.3.05,25.37,25.37,0,0,0-5.52-2.3,1.28,1.28,0,0,1-1-1.15C44,5,43.46,2.93,43,.87,42.87.28,42.7,0,42,0c-3.51,0-7,0-10.54,0-.56,0-.78.15-.9.71-.46,2.14-1,4.25-1.49,6.39a1.21,1.21,0,0,1-1,1.07,24.29,24.29,0,0,0-5.63,2.32,1,1,0,0,1-1.2,0C19.43,9.28,17.56,8.15,15.72,7c-.48-.31-.77-.37-1.21.09q-3.69,3.77-7.46,7.45c-.48.47-.37.76-.07,1.22,1.17,1.81,2.28,3.65,3.45,5.45a1.17,1.17,0,0,1,0,1.41A25.38,25.38,0,0,0,8.21,28,1.28,1.28,0,0,1,7.1,29.06c-2,.41-4,.93-5.95,1.35-.8.17-1.17.44-1.15,1.38.08,3.33.05,6.65,0,10,0,.7.2,1,.89,1.12,2.07.43,4.12,1,6.18,1.41a1.33,1.33,0,0,1,1.13,1,22.68,22.68,0,0,0,2.23,5.42,1.25,1.25,0,0,1-.06,1.52C9.22,54.1,8.14,56,7,57.76c-.38.56-.29.86.16,1.3q3.65,3.57,7.22,7.22c.51.52.84.62,1.48.19,1.76-1.17,3.58-2.25,5.35-3.4a1.19,1.19,0,0,1,1.41,0A24.87,24.87,0,0,0,28,65.28a1.37,1.37,0,0,1,1.09,1.22c.43,2.06,1,4.1,1.43,6.17.14.65.41.82,1.05.81,3.44,0,6.89,0,10.33,0,.6,0,.85-.18,1-.77.45-2.1,1-4.19,1.43-6.29a1.28,1.28,0,0,1,1-1.13A23.37,23.37,0,0,0,50.86,63a1.08,1.08,0,0,1,1.32,0c1.84,1.19,3.71,2.32,5.55,3.51.44.28.71.34,1.13-.09q3.69-3.77,7.46-7.45a.81.81,0,0,0,.11-1.24c-1.19-1.84-2.33-3.71-3.51-5.54A1,1,0,0,1,62.86,51a25.61,25.61,0,0,0,2.35-5.62,1.18,1.18,0,0,1,1.07-1c2.17-.46,4.33-1,6.51-1.47.57-.12.8-.32.79-.94Q73.54,36.75,73.57,31.48ZM36.88,49.18A12.44,12.44,0,1,1,49.2,36.67,12.48,12.48,0,0,1,36.88,49.18Z" style="fill:#ffbc00"/></g></g></svg>