<svg xmlns="http://www.w3.org/2000/svg" width="39.27" height="39.26" viewBox="0 0 39.27 39.26"><g id="Capa_2" data-name="Capa 2"><g id="Capa_1-2" data-name="Capa 1"><path id="Icon_awesome-instagram" data-name="Icon awesome-instagram" d="M19.64,9.56A10.07,10.07,0,1,0,29.71,19.63h0a10.07,10.07,0,0,0-10-10.07Zm0,16.61a6.54,6.54,0,1,1,6.54-6.54,6.54,6.54,0,0,1-6.54,6.54Zm12.82-17A2.35,2.35,0,1,1,30.12,6.8h0a2.34,2.34,0,0,1,2.34,2.34Zm6.67,2.39C39,8.39,38.26,5.6,36,3.31S30.88.3,27.73.14,14.78,0,11.54.14,5.61,1,3.31,3.3.3,8.38.14,11.53s-.19,13,0,16.2S1,33.66,3.31,36s5.08,3,8.23,3.17,13,.19,16.19,0S33.66,38.26,36,36s3-5.08,3.17-8.22.19-12.95,0-16.19ZM34.94,31.2a6.63,6.63,0,0,1-3.73,3.74c-2.58,1-8.71.78-11.57.78s-9,.23-11.57-.78A6.67,6.67,0,0,1,4.33,31.2c-1-2.58-.78-8.71-.78-11.57s-.23-9,.78-11.57A6.63,6.63,0,0,1,8.07,4.33c2.58-1,8.71-.79,11.57-.79s9-.23,11.57.79a6.58,6.58,0,0,1,3.73,3.73c1,2.58.79,8.71.79,11.57S36,28.63,34.94,31.2Z" style="fill:#fff;opacity:0.7000000000000001"/></g></g></svg>